<svg xmlns="http://www.w3.org/2000/svg" width="810" viewBox="0 0 810 810" height="810" version="1.0"><path fill="#FBC317" d="M 809.882812 399.945312 C 809.882812 579.417969 664.445312 724.921875 485.058594 724.921875 C 305.667969 724.921875 160.265625 579.417969 160.265625 399.945312 C 160.265625 220.46875 305.667969 74.964844 485.058594 74.964844 C 664.445312 74.964844 809.882812 220.46875 809.882812 399.945312"/><path fill="#D3D2D2" d="M 484.792969 724.921875 L 484.707031 724.921875 L 484.792969 724.921875 M 484.527344 724.921875 L 484.410156 724.921875 L 484.527344 724.921875 M 484.265625 724.921875 L 484.144531 724.921875 L 484.265625 724.921875 M 484 724.921875 L 483.882812 724.921875 L 484 724.921875 M 483.703125 724.921875 C 483.675781 724.894531 483.644531 724.894531 483.617188 724.894531 C 483.644531 724.894531 483.675781 724.894531 483.703125 724.921875 M 483.441406 724.894531 L 483.324219 724.894531 L 483.441406 724.894531 M 483.175781 724.894531 L 483.058594 724.894531 L 483.175781 724.894531 M 482.910156 724.894531 L 482.792969 724.894531 L 482.910156 724.894531 M 482.644531 724.894531 L 482.527344 724.894531 L 482.644531 724.894531 M 482.382812 724.894531 L 482.261719 724.894531 L 482.382812 724.894531 M 482.117188 724.894531 L 482 724.894531 L 482.117188 724.894531 M 481.820312 724.894531 L 481.734375 724.894531 L 481.820312 724.894531 M 481.558594 724.894531 L 481.46875 724.894531 L 481.558594 724.894531 M 481.261719 724.894531 L 481.203125 724.894531 L 481.261719 724.894531 M 481 724.894531 L 480.9375 724.894531 L 481 724.894531 M 480.734375 724.863281 L 480.675781 724.863281 L 480.734375 724.863281 M 480.46875 724.863281 L 480.410156 724.863281 L 480.46875 724.863281 M 480.175781 724.863281 L 480.117188 724.863281 L 480.175781 724.863281 M 479.878906 724.863281 L 479.851562 724.863281 L 479.878906 724.863281 M 809.882812 399.945312 L 809.882812 399.707031 L 809.882812 399.945312 M 809.882812 399.621094 L 809.882812 399.472656 L 809.882812 399.621094 M 809.882812 399.386719 L 809.882812 399.179688 L 809.882812 399.386719 M 809.882812 399.148438 L 809.882812 398.914062 L 809.882812 399.148438 M 809.882812 398.855469 L 809.882812 398.679688 L 809.882812 398.855469 M 809.882812 398.589844 L 809.882812 398.414062 L 809.882812 398.589844 M 809.882812 398.355469 L 809.882812 398.121094 L 809.882812 398.355469 M 809.882812 398.058594 L 809.882812 397.882812 L 809.882812 398.058594 M 809.851562 397.796875 L 809.851562 397.648438 L 809.851562 397.796875 M 809.851562 397.558594 L 809.851562 397.355469 L 809.851562 397.558594 M 809.851562 397.296875 L 809.851562 397.089844 L 809.851562 397.296875 M 809.851562 397 L 809.851562 396.824219 L 809.851562 397 M 809.851562 396.765625 L 809.851562 396.558594 L 809.851562 396.765625 M 809.851562 396.53125 L 809.851562 396.292969 L 809.851562 396.53125 M 809.851562 396.207031 L 809.851562 396.058594 L 809.851562 396.207031 M 809.851562 395.96875 L 809.851562 395.792969 L 809.851562 395.96875 M 809.851562 395.707031 L 809.851562 395.5 L 809.851562 395.707031 M 809.851562 395.441406 L 809.851562 395.265625 L 809.851562 395.441406 M 809.851562 395.175781 L 809.851562 395 L 809.851562 395.175781 M 809.851562 394.910156 C 809.851562 394.851562 809.824219 394.824219 809.824219 394.734375 C 809.824219 394.792969 809.851562 394.882812 809.851562 394.910156 M 809.824219 394.675781 L 809.824219 394.46875 L 809.824219 394.675781 M 809.824219 394.378906 L 809.824219 394.234375 L 809.824219 394.378906 M 809.824219 394.144531 L 809.824219 393.96875 L 809.824219 394.144531 M 809.824219 393.878906 L 809.824219 393.675781 L 809.824219 393.878906 M 809.824219 393.585938 C 809.824219 393.527344 809.792969 393.496094 809.792969 393.4375 C 809.792969 393.46875 809.824219 393.527344 809.824219 393.585938 M 809.792969 393.351562 L 809.792969 393.203125 L 809.792969 393.351562 M 809.792969 393.085938 L 809.792969 392.878906 L 809.792969 393.085938 M 809.792969 392.792969 L 809.792969 392.644531 L 809.792969 392.792969 M 809.792969 392.527344 L 809.792969 392.410156 L 809.792969 392.527344 M 809.792969 392.289062 L 809.792969 392.144531 L 809.792969 392.289062 M 809.792969 392.027344 C 809.792969 391.96875 809.792969 391.90625 809.765625 391.847656 C 809.792969 391.90625 809.792969 391.96875 809.792969 392.027344 M 809.765625 391.730469 L 809.765625 391.613281 L 809.765625 391.730469 M 809.765625 391.496094 L 809.765625 391.40625 L 809.765625 391.496094 M 809.765625 391.261719 L 809.765625 391.054688 L 809.765625 391.261719 M 809.734375 390.9375 L 809.734375 390.820312 L 809.734375 390.9375 M 809.734375 390.703125 L 809.734375 390.613281 L 809.734375 390.703125 M 809.734375 390.464844 L 809.734375 390.347656 L 809.734375 390.464844 M 809.734375 390.140625 L 809.734375 390.023438 L 809.734375 390.140625 M 809.734375 389.90625 C 809.734375 389.878906 809.707031 389.816406 809.707031 389.816406 C 809.707031 389.847656 809.734375 389.878906 809.734375 389.90625 M 809.707031 389.671875 L 809.707031 389.582031 L 809.707031 389.671875 M 809.707031 389.347656 L 809.707031 389.257812 L 809.707031 389.347656 M 809.707031 389.113281 L 809.707031 389.023438 L 809.707031 389.113281 M 809.707031 388.875 L 809.707031 388.789062 L 809.707031 388.875 M 809.675781 388.316406 L 809.675781 388.230469 L 809.675781 388.316406 M 809.675781 388.082031 C 809.648438 388.050781 809.648438 388.023438 809.648438 387.992188 C 809.648438 388.023438 809.648438 388.050781 809.675781 388.082031 M 809.648438 387.847656 L 809.648438 387.816406 L 809.648438 387.847656 M 809.648438 387.492188 L 809.648438 387.433594 L 809.648438 387.492188 M 809.648438 387.285156 L 809.648438 387.226562 L 809.648438 387.285156 M 809.617188 387.050781 L 809.617188 386.992188 L 809.617188 387.050781 M 809.585938 386.460938 L 809.585938 386.433594 L 809.585938 386.460938 M 809.585938 386.257812 L 809.585938 386.226562 L 809.585938 386.257812 M 809.558594 385.460938 L 809.558594 385.433594 L 809.558594 385.460938"/><path fill="#CEA013" d="M 485.058594 724.921875 L 483.707031 724.921875 C 483.675781 724.894531 483.644531 724.894531 483.617188 724.894531 L 480.9375 724.894531 C 480.878906 724.863281 480.792969 724.863281 480.734375 724.863281 L 479.851562 724.863281 C 388.433594 723.421875 306.199219 684.183594 248.0625 622.101562 C 284.132812 636.054688 323.292969 643.765625 364.28125 643.855469 C 373.019531 661.25 390.847656 673.261719 411.5625 673.644531 L 412.238281 673.644531 C 412.265625 673.644531 412.265625 673.644531 412.296875 673.671875 L 412.589844 673.671875 C 422.476562 673.671875 431.773438 670.996094 439.746094 666.316406 C 478.203125 680.679688 517.921875 689.246094 556.761719 689.273438 C 653.648438 689.273438 745.152344 635.878906 798.113281 485.164062 C 798.113281 485.164062 775.28125 511.714844 735.914062 530.054688 C 734.414062 516.601562 723.027344 506.152344 709.199219 506.152344 C 694.371094 506.152344 682.335938 518.191406 682.335938 533.054688 C 682.335938 537.472656 683.425781 541.621094 685.277344 545.300781 C 677.453125 546.421875 669.300781 547.066406 660.796875 547.066406 C 643.410156 547.066406 624.726562 544.417969 604.894531 538.03125 C 634.847656 505.238281 658.179688 466.265625 672.746094 423.257812 C 677.304688 424.582031 682.101562 425.347656 687.074219 425.4375 L 687.984375 425.4375 C 717.820312 425.4375 742.003906 401.238281 742.003906 371.390625 L 742.003906 370.683594 C 742.003906 370.65625 742.003906 370.625 741.976562 370.597656 L 741.976562 369.773438 C 741.121094 341.308594 718.261719 318.375 689.839844 317.40625 C 689.484375 232.070312 656.179688 154.503906 602.070312 96.71875 C 719.113281 141.964844 803.4375 253.085938 809.527344 384.636719 C 809.527344 384.902344 809.527344 385.167969 809.558594 385.433594 L 809.558594 385.636719 C 809.589844 385.84375 809.589844 386.050781 809.589844 386.226562 L 809.589844 386.460938 C 809.617188 386.640625 809.617188 386.816406 809.617188 386.992188 L 809.617188 387.050781 C 809.617188 387.109375 809.648438 387.167969 809.648438 387.226562 L 809.648438 387.992188 C 809.648438 388.023438 809.648438 388.050781 809.675781 388.082031 L 809.675781 388.316406 C 809.675781 388.464844 809.675781 388.640625 809.707031 388.789062 L 809.707031 389.820312 C 809.707031 389.820312 809.734375 389.878906 809.734375 389.90625 L 809.734375 390.9375 C 809.765625 390.964844 809.765625 391.023438 809.765625 391.054688 L 809.765625 391.847656 C 809.792969 391.910156 809.792969 391.96875 809.792969 392.027344 L 809.792969 393.4375 C 809.792969 393.496094 809.824219 393.527344 809.824219 393.585938 L 809.824219 394.734375 C 809.824219 394.824219 809.851562 394.851562 809.851562 394.910156 L 809.851562 397.796875 C 809.851562 397.824219 809.882812 397.855469 809.882812 397.882812 L 809.882812 399.945312 C 809.882812 579.417969 664.449219 724.921875 485.058594 724.921875"/><path fill="#F68A1E" d="M 358.542969 619.628906 C 358.542969 589.78125 382.726562 565.582031 412.589844 565.582031 C 442.394531 565.582031 466.582031 589.78125 466.582031 619.628906 C 466.582031 649.476562 442.394531 673.671875 412.589844 673.671875 C 382.726562 673.671875 358.542969 649.476562 358.542969 619.628906"/><path fill="#87680C" d="M 412.472656 673.671875 L 412.445312 673.671875 L 412.472656 673.671875 M 412.386719 673.671875 L 412.355469 673.671875 L 412.386719 673.671875 M 412.296875 673.671875 C 412.265625 673.644531 412.265625 673.644531 412.238281 673.644531 C 412.265625 673.644531 412.265625 673.644531 412.296875 673.671875 M 412.179688 673.644531 L 412.148438 673.644531 L 412.179688 673.644531 M 412.089844 673.644531 L 412.0625 673.644531 L 412.089844 673.644531 M 411.679688 673.644531 L 411.648438 673.644531 L 411.679688 673.644531"/><path fill="#A05812" d="M 412.589844 673.671875 L 412.296875 673.671875 C 412.265625 673.644531 412.265625 673.644531 412.238281 673.644531 L 411.5625 673.644531 C 394.613281 673.351562 379.609375 665.226562 369.929688 652.746094 C 379.050781 659.839844 390.523438 664.105469 403.027344 664.105469 C 410.355469 664.105469 417.359375 662.636719 423.742188 659.984375 C 429.039062 662.195312 434.394531 664.3125 439.746094 666.316406 C 431.773438 670.996094 422.476562 673.671875 412.589844 673.671875"/><path fill="#F68A1E" d="M 426.683594 317.375 C 426.683594 287.527344 450.839844 263.328125 480.675781 263.328125 C 510.507812 263.328125 534.695312 287.527344 534.695312 317.375 C 534.695312 347.195312 510.507812 371.390625 480.675781 371.390625 C 450.839844 371.390625 426.683594 347.195312 426.683594 317.375"/><path fill="#A27D0E" d="M 480.585938 371.390625 L 480.558594 371.390625 L 480.585938 371.390625 M 480.378906 371.390625 L 480.351562 371.390625 L 480.378906 371.390625 M 480.292969 371.390625 L 480.261719 371.390625 L 480.292969 371.390625 M 479.878906 371.390625 L 479.851562 371.390625 L 479.878906 371.390625 M 534.695312 317.285156 L 534.695312 317.226562 L 534.695312 317.285156 M 534.695312 317.167969 L 534.695312 317.140625 L 534.695312 317.167969 M 534.695312 317.082031 L 534.695312 317.050781 L 534.695312 317.082031 M 534.695312 316.992188 L 534.695312 316.964844 L 534.695312 316.992188 M 534.695312 316.460938 L 534.695312 316.433594 L 534.695312 316.460938 M 534.695312 316.375 L 534.695312 316.34375 L 534.695312 316.375"/><path fill="#A05812" d="M 480.675781 371.390625 L 479.761719 371.390625 C 462.785156 371.125 447.722656 362.972656 438.042969 350.492188 C 447.164062 357.613281 458.667969 361.855469 471.113281 361.855469 C 500.945312 361.855469 525.132812 337.65625 525.132812 307.808594 C 525.132812 295.328125 520.894531 283.847656 513.773438 274.691406 C 526.25 284.378906 534.371094 299.417969 534.695312 316.34375 L 534.695312 317.375 C 534.695312 347.195312 510.507812 371.390625 480.675781 371.390625"/><path fill="#F68A1E" d="M 633.996094 371.390625 C 633.996094 341.570312 658.179688 317.375 687.984375 317.375 C 717.820312 317.375 742.003906 341.570312 742.003906 371.390625 C 742.003906 401.238281 717.820312 425.4375 687.984375 425.4375 C 658.179688 425.4375 633.996094 401.238281 633.996094 371.390625"/><path fill="#87680C" d="M 687.898438 425.4375 L 687.867188 425.4375 L 687.898438 425.4375 M 687.808594 425.4375 L 687.75 425.4375 L 687.808594 425.4375 M 687.691406 425.4375 L 687.660156 425.4375 L 687.691406 425.4375 M 687.601562 425.4375 L 687.574219 425.4375 L 687.601562 425.4375 M 687.191406 425.4375 L 687.160156 425.4375 L 687.191406 425.4375 M 742.003906 371.304688 L 742.003906 371.273438 L 742.003906 371.304688 M 742.003906 371.214844 L 742.003906 371.183594 L 742.003906 371.214844 M 742.003906 371.125 L 742.003906 371.066406 L 742.003906 371.125 M 742.003906 371.007812 L 742.003906 370.980469 L 742.003906 371.007812 M 742.003906 370.921875 L 742.003906 370.890625 L 742.003906 370.921875 M 741.976562 370.597656 L 741.976562 370.566406 L 741.976562 370.597656 M 741.976562 370.507812 L 741.976562 370.480469 L 741.976562 370.507812 M 741.976562 370.300781 L 741.976562 370.273438 L 741.976562 370.300781"/><path fill="#A05812" d="M 687.984375 425.4375 L 687.074219 425.4375 C 670.097656 425.140625 655.03125 417.015625 645.351562 404.535156 C 654.472656 411.628906 665.976562 415.871094 678.453125 415.871094 C 708.257812 415.871094 732.441406 391.671875 732.441406 361.855469 C 732.441406 349.34375 728.207031 337.890625 721.113281 328.738281 C 733.414062 338.304688 741.476562 353.082031 741.976562 369.773438 L 741.976562 370.597656 C 742.003906 370.625 742.003906 370.65625 742.003906 370.683594 L 742.003906 371.390625 C 742.003906 401.238281 717.820312 425.4375 687.984375 425.4375"/><path fill="#F68A1E" d="M 209.046875 481.984375 C 209.046875 465.527344 222.375 452.195312 238.792969 452.195312 C 255.238281 452.195312 268.566406 465.527344 268.566406 481.984375 C 268.566406 498.410156 255.238281 511.742188 238.792969 511.742188 C 222.375 511.742188 209.046875 498.410156 209.046875 481.984375"/><path fill="#F68A1E" d="M 328.53125 160.566406 C 328.53125 144.113281 341.859375 130.777344 358.304688 130.777344 C 374.753906 130.777344 388.050781 144.113281 388.050781 160.566406 C 388.050781 177.023438 374.753906 190.328125 358.304688 190.328125 C 341.859375 190.328125 328.53125 177.023438 328.53125 160.566406"/><path fill="#A27D0E" d="M 358.21875 190.328125 L 358.1875 190.328125 L 358.21875 190.328125 M 358.160156 190.328125 L 358.128906 190.328125 L 358.160156 190.328125 M 358.101562 190.328125 L 358.070312 190.328125 L 358.101562 190.328125 M 358.042969 190.328125 L 358.011719 190.328125 L 358.042969 190.328125 M 357.863281 190.328125 L 357.835938 190.328125 L 357.863281 190.328125 M 388.050781 160.507812 L 388.050781 160.480469 L 388.050781 160.507812 M 388.050781 160.449219 L 388.050781 160.421875 L 388.050781 160.449219 M 388.050781 160.363281 L 388.050781 160.332031 L 388.050781 160.363281 M 388.050781 160.300781 L 388.050781 160.273438 L 388.050781 160.300781 M 388.050781 160.125 L 388.050781 160.097656 L 388.050781 160.125"/><path fill="#A05812" d="M 358.304688 190.328125 L 357.746094 190.328125 C 348.421875 190.152344 340.152344 185.675781 334.796875 178.816406 C 339.828125 182.734375 346.183594 185.089844 353.039062 185.089844 C 369.488281 185.089844 382.816406 171.753906 382.816406 155.296875 C 382.816406 148.410156 380.460938 142.082031 376.546875 137.046875 C 383.402344 142.375 387.875 150.648438 388.054688 159.949219 L 388.054688 160.566406 C 388.054688 177.023438 374.753906 190.328125 358.308594 190.328125"/><path fill="#F68A1E" d="M 548.167969 149.648438 C 548.167969 134.8125 560.175781 122.769531 575.03125 122.769531 C 589.859375 122.769531 601.894531 134.8125 601.894531 149.648438 C 601.894531 164.484375 589.859375 176.523438 575.03125 176.523438 C 560.175781 176.523438 548.167969 164.484375 548.167969 149.648438"/><path fill="#A27D0E" d="M 574.945312 176.523438 L 574.914062 176.523438 L 574.945312 176.523438 M 574.855469 176.523438 L 574.828125 176.523438 L 574.855469 176.523438 M 574.796875 176.523438 L 574.765625 176.523438 L 574.796875 176.523438 M 574.589844 176.523438 L 574.5625 176.523438 L 574.589844 176.523438 M 574.386719 176.523438 L 574.355469 176.523438 L 574.386719 176.523438 M 574.238281 176.523438 L 574.207031 176.523438 L 574.238281 176.523438 M 574.03125 176.523438 L 574.003906 176.523438 L 574.03125 176.523438 M 573.945312 176.492188 L 573.914062 176.492188 L 573.945312 176.492188 M 573.738281 176.492188 L 573.707031 176.492188 L 573.738281 176.492188 M 601.894531 149.558594 L 601.894531 149.527344 L 601.894531 149.558594 M 601.894531 149.410156 L 601.894531 149.382812 L 601.894531 149.410156 M 601.894531 149.203125 L 601.894531 149.175781 L 601.894531 149.203125"/><path fill="#A05812" d="M 575.03125 176.523438 L 573.972656 176.523438 C 573.941406 176.523438 573.941406 176.523438 573.941406 176.492188 L 573.621094 176.492188 C 565.558594 176.082031 558.4375 172.105469 553.816406 166.101562 C 558.347656 169.664062 564.058594 171.78125 570.265625 171.78125 C 585.09375 171.78125 597.128906 159.742188 597.128906 144.90625 C 597.128906 138.695312 595.007812 132.984375 591.480469 128.421875 C 597.6875 133.25 601.746094 140.757812 601.894531 149.175781 L 601.894531 149.644531 C 601.894531 164.480469 589.859375 176.523438 575.03125 176.523438"/><path fill="#F68A1E" d="M 682.335938 533.054688 C 682.335938 518.191406 694.371094 506.152344 709.199219 506.152344 C 724.058594 506.152344 736.0625 518.191406 736.0625 533.054688 C 736.0625 547.890625 724.058594 559.929688 709.199219 559.929688 C 694.371094 559.929688 682.335938 547.890625 682.335938 533.054688"/><path fill="#A05812" d="M 731.03125 532.230469 C 731.207031 530.9375 731.324219 529.640625 731.324219 528.289062 C 731.324219 522.074219 729.207031 516.367188 725.675781 511.832031 C 731.265625 516.160156 735.089844 522.636719 735.914062 530.054688 C 734.296875 530.789062 732.679688 531.523438 731.03125 532.230469"/><path fill="#F1511B" d="M 798.113281 485.164062 C 798.113281 485.164062 603.277344 712 369.429688 297.210938 C 108.953125 203.75 120.367188 422.757812 264.890625 556.632812 C 409.414062 690.511719 687.660156 799.515625 798.113281 485.164062"/><path fill="#C74215" d="M 433.714844 600.199219 C 433.714844 600.199219 309.496094 529.40625 290.222656 502.324219 C 270.953125 475.242188 277.277344 437.652344 304.347656 418.371094 C 314.9375 410.835938 327.117188 407.214844 339.210938 407.214844 C 358.011719 407.214844 376.519531 416.015625 388.257812 432.5 C 407.558594 459.613281 433.714844 600.199219 433.714844 600.199219 M 389.789062 538.441406 C 389.789062 538.441406 375.546875 461.9375 365.074219 447.21875 C 358.660156 438.242188 348.597656 433.441406 338.359375 433.441406 C 331.796875 433.441406 325.148438 435.414062 319.378906 439.507812 C 304.667969 450.015625 301.226562 470.445312 311.703125 485.191406 C 322.207031 499.941406 389.789062 538.441406 389.789062 538.441406"/><path fill="#A63611" d="M 389.789062 538.441406 C 389.789062 538.441406 322.207031 499.941406 311.703125 485.191406 C 301.226562 470.445312 304.667969 450.015625 319.378906 439.507812 C 325.148438 435.414062 331.796875 433.441406 338.359375 433.441406 C 348.597656 433.441406 358.660156 438.242188 365.074219 447.21875 C 375.546875 461.9375 389.789062 538.441406 389.789062 538.441406"/><path fill="#3F4374" d="M 159.351562 101.929688 L 337.5625 352.433594 L 231.203125 428.144531 L 52.996094 177.671875 C 32.089844 148.261719 -0.0898438 52.625 29.296875 31.707031 C 58.652344 10.792969 138.433594 72.550781 159.351562 101.929688"/><path fill="#D3D2D2" d="M 159.144531 101.636719 C 159.027344 101.488281 158.941406 101.339844 158.824219 101.195312 C 158.941406 101.339844 159.027344 101.488281 159.144531 101.636719 M 158.761719 101.105469 L 158.734375 101.078125 L 158.761719 101.105469 M 158.703125 101.015625 L 158.675781 100.988281 L 158.703125 101.015625 M 158.644531 100.957031 C 158.617188 100.929688 158.617188 100.929688 158.617188 100.898438 C 158.617188 100.929688 158.617188 100.929688 158.644531 100.957031 M 100.007812 49.5625 C 99.976562 49.535156 99.949219 49.503906 99.917969 49.503906 C 99.949219 49.535156 99.976562 49.535156 100.007812 49.5625 M 99.683594 49.355469 C 99.652344 49.328125 99.625 49.296875 99.59375 49.296875 C 99.625 49.296875 99.652344 49.328125 99.683594 49.355469 M 99.507812 49.238281 C 80.015625 36.707031 59.730469 27.464844 44.308594 27.476562 C 59.71875 27.476562 80.015625 36.707031 99.507812 49.238281 M 29.355469 31.664062 C 33.457031 28.761719 38.539062 27.476562 44.308594 27.476562 C 38.550781 27.476562 33.457031 28.761719 29.355469 31.664062"/><path fill="#34365F" d="M 319.351562 365.414062 L 207.871094 208.726562 C 209.015625 195.804688 205.75 182.4375 197.660156 171.046875 C 189.539062 159.625 177.976562 152.148438 165.382812 149 L 147.878906 124.359375 C 136.492188 108.375 118.511719 99.839844 100.273438 99.839844 C 88.5625 99.839844 76.738281 103.34375 66.476562 110.644531 C 65.542969 111.320312 64.5 111.644531 63.335938 111.644531 C 46.59375 111.644531 8.988281 46.148438 29.296875 31.707031 C 29.308594 31.695312 29.332031 31.683594 29.355469 31.664062 C 33.457031 28.761719 38.550781 27.476562 44.308594 27.476562 C 59.730469 27.464844 80.015625 36.707031 99.507812 49.238281 C 99.535156 49.269531 99.566406 49.269531 99.59375 49.296875 C 99.625 49.296875 99.652344 49.328125 99.683594 49.355469 C 99.773438 49.414062 99.859375 49.472656 99.917969 49.503906 C 99.949219 49.503906 99.976562 49.53125 100.007812 49.5625 C 124.722656 65.515625 148.082031 86.683594 158.617188 100.898438 C 158.617188 100.929688 158.617188 100.929688 158.644531 100.957031 C 158.675781 100.957031 158.675781 100.988281 158.675781 100.988281 L 158.703125 101.015625 C 158.734375 101.046875 158.734375 101.078125 158.734375 101.078125 L 158.761719 101.105469 C 158.761719 101.136719 158.792969 101.164062 158.824219 101.195312 C 158.941406 101.339844 159.027344 101.488281 159.144531 101.636719 C 159.203125 101.722656 159.292969 101.8125 159.351562 101.929688 L 337.5625 352.433594 L 319.351562 365.386719"/><path fill="#F68A1E" d="M 197.660156 171.046875 C 215.726562 196.421875 209.78125 231.65625 184.417969 249.730469 C 159 267.832031 123.78125 261.886719 105.714844 236.484375 C 87.648438 211.082031 93.59375 175.84375 118.984375 157.769531 C 144.347656 139.695312 179.59375 145.644531 197.660156 171.046875"/><path fill="#55C6C2" d="M 184.742188 180.203125 C 197.75 198.480469 193.480469 223.828125 175.210938 236.835938 C 156.96875 249.847656 131.605469 245.578125 118.632812 227.300781 C 105.625 209.019531 109.894531 183.675781 128.132812 170.695312 C 146.40625 157.683594 171.738281 161.949219 184.742188 180.203125"/><path fill="#46A2A1" d="M 151.703125 244.371094 C 139.019531 244.371094 126.546875 238.425781 118.632812 227.300781 C 113.542969 220.148438 111.097656 211.933594 111.097656 203.808594 C 111.097656 191.121094 117.011719 178.613281 128.136719 170.695312 C 135.285156 165.601562 143.492188 163.15625 151.644531 163.15625 C 164.324219 163.15625 176.828125 169.105469 184.742188 180.203125 C 189.832031 187.355469 192.246094 195.566406 192.277344 203.722656 C 192.277344 216.410156 186.332031 228.917969 175.210938 236.835938 C 168.0625 241.898438 159.851562 244.371094 151.703125 244.371094"/><path fill="#55C6C2" d="M 179.890625 183.675781 C 190.980469 199.246094 187.363281 220.882812 171.769531 232.007812 C 156.175781 243.105469 134.550781 239.457031 123.457031 223.855469 C 112.363281 208.253906 116.011719 186.617188 131.605469 175.519531 C 147.171875 164.421875 168.824219 168.074219 179.890625 183.675781"/><path fill="#FFF" d="M 153.878906 187.207031 C 158.585938 193.859375 157.027344 203.074219 150.40625 207.785156 C 143.757812 212.492188 134.550781 210.933594 129.871094 204.308594 C 125.132812 197.6875 126.664062 188.472656 133.3125 183.761719 C 139.933594 179.023438 149.140625 180.585938 153.878906 187.207031"/><path fill="#FFF" d="M 171.0625 199.777344 C 173.652344 203.367188 172.796875 208.371094 169.179688 210.933594 C 165.589844 213.492188 160.617188 212.667969 158.027344 209.050781 C 155.46875 205.457031 156.320312 200.453125 159.910156 197.894531 C 163.5 195.332031 168.503906 196.183594 171.0625 199.777344"/><path fill="#161525" d="M 257.0625 351.902344 L 201.808594 320.082031 L 288.546875 441.980469 L 361.808594 499.117188 L 331.855469 411.160156 L 245.117188 289.234375 L 257.0625 351.902344"/><path fill="#161525" d="M 276.628906 266.804688 L 363.367188 388.699219 L 462.195312 427.644531 L 357.453125 280.402344 L 276.628906 266.804688"/><path fill="#161525" d="M 170.296875 342.515625 L 257.035156 464.441406 L 261.417969 570.585938 L 156.675781 423.375 L 170.296875 342.515625"/></svg>